<svg width="35" height="40" viewBox="0 0 35 40" fill="none" xmlns="http://www.w3.org/2000/svg">
<g clip-path="url(#clip0_1059_164)">
<path d="M12.5 10.75C12.5 7.99219 14.7422 5.75 17.5 5.75C20.2578 5.75 22.5 7.99219 22.5 10.75V14.5H12.5V10.75ZM8.75 14.5H3.75C1.67969 14.5 0 16.1797 0 18.25V34.5C0 38.6406 3.35938 42 7.5 42H27.5C31.6406 42 35 38.6406 35 34.5V18.25C35 16.1797 33.3203 14.5 31.25 14.5H26.25V10.75C26.25 5.91406 22.3359 2 17.5 2C12.6641 2 8.75 5.91406 8.75 10.75V14.5ZM10.625 18.25C11.1223 18.25 11.5992 18.4475 11.9508 18.7992C12.3025 19.1508 12.5 19.6277 12.5 20.125C12.5 20.6223 12.3025 21.0992 11.9508 21.4508C11.5992 21.8025 11.1223 22 10.625 22C10.1277 22 9.65081 21.8025 9.29917 21.4508C8.94754 21.0992 8.75 20.6223 8.75 20.125C8.75 19.6277 8.94754 19.1508 9.29917 18.7992C9.65081 18.4475 10.1277 18.25 10.625 18.25ZM22.5 20.125C22.5 19.6277 22.6975 19.1508 23.0492 18.7992C23.4008 18.4475 23.8777 18.25 24.375 18.25C24.8723 18.25 25.3492 18.4475 25.7008 18.7992C26.0525 19.1508 26.25 19.6277 26.25 20.125C26.25 20.6223 26.0525 21.0992 25.7008 21.4508C25.3492 21.8025 24.8723 22 24.375 22C23.8777 22 23.4008 21.8025 23.0492 21.4508C22.6975 21.0992 22.5 20.6223 22.5 20.125Z" fill="white"/>
</g>
<defs>
<clipPath id="clip0_1059_164">
<rect width="35" height="40" fill="white"/>
</clipPath>
</defs>
</svg>
